<svg width="863.119970703125px" height="140.08001708984375px" xmlns="http://www.w3.org/2000/svg" viewBox="-181.5599853515625 4.959991455078125 863.119970703125 140.08001708984375" style="background: none;" preserveAspectRatio="xMidYMid"><defs><filter id="editing-hole" x="-100%" y="-100%" width="300%" height="300%"><feFlood flood-color="#000" result="black"></feFlood><feMorphology operator="dilate" radius="2" in="SourceGraphic" result="erode"></feMorphology><feGaussianBlur in="erode" stdDeviation="4" result="blur"></feGaussianBlur><feOffset in="blur" dx="2" dy="2" result="offset"></feOffset><feComposite operator="atop" in="offset" in2="black" result="merge"></feComposite><feComposite operator="in" in="merge" in2="SourceGraphic" result="inner-shadow"></feComposite></filter></defs><g filter="url(#editing-hole)"><g transform="translate(-60.08000159263611, 104.50500106811523)"><path d="M56.58 0L42.56 0L42.56-15.87L42.56-15.87Q42.56-18.82 42.78-21.92L42.78-21.92L42.78-21.92Q43.01-25.02 43.26-27.14L43.26-27.14L43.26-27.14Q43.52-29.25 43.58-29.82L43.58-29.82L43.33-29.82L35.20 0L24.13 0L15.94-29.76L15.68-29.76L15.68-29.76Q15.74-29.18 16.03-27.10L16.03-27.10L16.03-27.10Q16.32-25.02 16.58-21.92L16.58-21.92L16.58-21.92Q16.83-18.82 16.83-15.87L16.83-15.87L16.83 0L3.84 0L3.84-44.03L23.81-44.03L30.46-18.62L30.72-18.62L37.31-44.03L56.58-44.03L56.58 0ZM81.73-34.56L81.73-34.56Q91.01-34.56 95.90-30.21L95.90-30.21L95.90-30.21Q100.80-25.86 100.80-16.90L100.80-16.90L100.80-14.72L75.46-14.72L75.46-14.72Q75.46-11.07 77.09-9.22L77.09-9.22L77.09-9.22Q78.72-7.36 82.24-7.36L82.24-7.36L82.24-7.36Q85.44-7.36 86.94-8.70L86.94-8.70L86.94-8.70Q88.45-10.05 88.45-12.29L88.45-12.29L100.80-12.29L100.80-12.29Q100.80-6.14 96.13-2.69L96.13-2.69L96.13-2.69Q91.46 0.77 82.50 0.77L82.50 0.77L82.50 0.77Q73.09 0.77 67.90-3.62L67.90-3.62L67.90-3.62Q62.72-8 62.72-16.90L62.72-16.90L62.72-16.90Q62.72-25.60 67.78-30.08L67.78-30.08L67.78-30.08Q72.83-34.56 81.73-34.56L81.73-34.56ZM82.24-26.43L82.24-26.43Q76.22-26.43 75.52-20.74L75.52-20.74L87.94-20.74L87.94-20.74Q87.94-23.36 86.43-24.90L86.43-24.90L86.43-24.90Q84.93-26.43 82.24-26.43L82.24-26.43ZM122.30-33.79L129.47-33.79L129.47-25.15L122.30-25.15L122.30-12.29L122.30-12.29Q122.30-9.98 123.07-8.93L123.07-8.93L123.07-8.93Q123.84-7.87 125.89-7.87L125.89-7.87L129.47-7.87L129.47-0.38L129.47-0.38Q127.94 0.13 125.50 0.45L125.50 0.45L125.50 0.45Q123.07 0.77 121.28 0.77L121.28 0.77L121.28 0.77Q115.65 0.77 112.61-1.28L112.61-1.28L112.61-1.28Q109.57-3.33 109.57-8.26L109.57-8.26L109.57-25.15L104.83-25.15L104.83-33.79L110.08-33.79L112.83-44.03L122.30-44.03L122.30-33.79ZM152.06-34.56L152.06-34.56Q159.81-34.56 164.67-31.97L164.67-31.97L164.67-31.97Q169.54-29.38 169.54-23.55L169.54-23.55L169.54-10.37L169.54-10.37Q169.54-9.28 170.05-8.58L170.05-8.58L170.05-8.58Q170.56-7.87 171.58-7.87L171.58-7.87L173.89-7.87L173.89-0.51L173.89-0.51Q173.70-0.38 172.90-0.10L172.90-0.10L172.90-0.10Q172.10 0.19 170.62 0.48L170.62 0.48L170.62 0.48Q169.15 0.77 167.23 0.77L167.23 0.77L167.23 0.77Q163.52 0.77 161.12-0.35L161.12-0.35L161.12-0.35Q158.72-1.47 157.82-3.46L157.82-3.46L157.82-3.46Q155.39-1.54 152.38-0.38L152.38-0.38L152.38-0.38Q149.38 0.77 145.34 0.77L145.34 0.77L145.34 0.77Q133.44 0.77 133.44-8.70L133.44-8.70L133.44-8.70Q133.44-13.63 136.10-16.22L136.10-16.22L136.10-16.22Q138.75-18.82 143.74-19.78L143.74-19.78L143.74-19.78Q148.74-20.74 156.80-20.74L156.80-20.74L156.80-22.40L156.80-22.40Q156.80-24.38 155.42-25.41L155.42-25.41L155.42-25.41Q154.05-26.43 151.87-26.43L151.87-26.43L151.87-26.43Q149.89-26.43 148.45-25.73L148.45-25.73L148.45-25.73Q147.01-25.02 147.01-23.49L147.01-23.49L147.01-23.23L134.46-23.23L134.46-23.23Q134.40-23.55 134.40-24.13L134.40-24.13L134.40-24.13Q134.40-28.93 138.98-31.74L138.98-31.74L138.98-31.74Q143.55-34.56 152.06-34.56L152.06-34.56ZM156.80-14.72L156.80-14.72Q151.36-14.72 148.77-13.54L148.77-13.54L148.77-13.54Q146.18-12.35 146.18-10.37L146.18-10.37L146.18-10.37Q146.18-7.17 150.53-7.17L150.53-7.17L150.53-7.17Q153.02-7.17 154.91-8.51L154.91-8.51L154.91-8.51Q156.80-9.86 156.80-11.84L156.80-11.84L156.80-14.72ZM200.32-34.56L200.32-34.56Q207.17-34.56 210.88-30.08L210.88-30.08L210.88-30.08Q214.59-25.60 214.59-16.83L214.59-16.83L214.59-16.83Q214.59-8.13 210.88-3.68L210.88-3.68L210.88-3.68Q207.17 0.77 200.32 0.77L200.32 0.77L200.32 0.77Q194.43 0.77 190.85-3.07L190.85-3.07L190.85 12.61L178.11 12.61L178.11-33.79L188.48-33.79L189.57-28.99L189.57-28.99Q193.28-34.56 200.32-34.56L200.32-34.56ZM196.35-25.15L196.35-25.15Q193.54-25.15 192.13-23.17L192.13-23.17L192.13-23.17Q190.72-21.18 190.72-17.98L190.72-17.98L190.72-15.87L190.72-15.87Q190.72-12.67 192.13-10.66L192.13-10.66L192.13-10.66Q193.54-8.64 196.35-8.64L196.35-8.64L196.35-8.64Q201.86-8.64 201.86-15.23L201.86-15.23L201.86-18.62L201.86-18.62Q201.86-25.15 196.35-25.15L196.35-25.15ZM233.92 0L221.18 0L221.18-46.40L233.92-46.40L233.92 0ZM258.75-34.56L258.75-34.56Q266.50-34.56 271.36-31.97L271.36-31.97L271.36-31.97Q276.22-29.38 276.22-23.55L276.22-23.55L276.22-10.37L276.22-10.37Q276.22-9.28 276.74-8.58L276.74-8.58L276.74-8.58Q277.25-7.87 278.27-7.87L278.27-7.87L280.58-7.87L280.58-0.51L280.58-0.51Q280.38-0.38 279.58-0.10L279.58-0.10L279.58-0.10Q278.78 0.19 277.31 0.48L277.31 0.48L277.31 0.48Q275.84 0.77 273.92 0.77L273.92 0.77L273.92 0.77Q270.21 0.77 267.81-0.35L267.81-0.35L267.81-0.35Q265.41-1.47 264.51-3.46L264.51-3.46L264.51-3.46Q262.08-1.54 259.07-0.38L259.07-0.38L259.07-0.38Q256.06 0.77 252.03 0.77L252.03 0.77L252.03 0.77Q240.13 0.77 240.13-8.70L240.13-8.70L240.13-8.70Q240.13-13.63 242.78-16.22L242.78-16.22L242.78-16.22Q245.44-18.82 250.43-19.78L250.43-19.78L250.43-19.78Q255.42-20.74 263.49-20.74L263.49-20.74L263.49-22.40L263.49-22.40Q263.49-24.38 262.11-25.41L262.11-25.41L262.11-25.41Q260.74-26.43 258.56-26.43L258.56-26.43L258.56-26.43Q256.58-26.43 255.14-25.73L255.14-25.73L255.14-25.73Q253.70-25.02 253.70-23.49L253.70-23.49L253.70-23.23L241.15-23.23L241.15-23.23Q241.09-23.55 241.09-24.13L241.09-24.13L241.09-24.13Q241.09-28.93 245.66-31.74L245.66-31.74L245.66-31.74Q250.24-34.56 258.75-34.56L258.75-34.56ZM263.49-14.72L263.49-14.72Q258.05-14.72 255.46-13.54L255.46-13.54L255.46-13.54Q252.86-12.35 252.86-10.37L252.86-10.37L252.86-10.37Q252.86-7.17 257.22-7.17L257.22-7.17L257.22-7.17Q259.71-7.17 261.60-8.51L261.60-8.51L261.60-8.51Q263.49-9.86 263.49-11.84L263.49-11.84L263.49-14.72ZM300.10-33.79L307.26-33.79L307.26-25.15L300.10-25.15L300.10-12.29L300.10-12.29Q300.10-9.98 300.86-8.93L300.86-8.93L300.86-8.93Q301.63-7.87 303.68-7.87L303.68-7.87L307.26-7.87L307.26-0.38L307.26-0.38Q305.73 0.13 303.30 0.45L303.30 0.45L303.30 0.45Q300.86 0.77 299.07 0.77L299.07 0.77L299.07 0.77Q293.44 0.77 290.40-1.28L290.40-1.28L290.40-1.28Q287.36-3.33 287.36-8.26L287.36-8.26L287.36-25.15L282.62-25.15L282.62-33.79L287.87-33.79L290.62-44.03L300.10-44.03L300.10-33.79ZM330.62-34.56L330.62-34.56Q339.90-34.56 344.80-30.21L344.80-30.21L344.80-30.21Q349.70-25.86 349.70-16.90L349.70-16.90L349.70-14.72L324.35-14.72L324.35-14.72Q324.35-11.07 325.98-9.22L325.98-9.22L325.98-9.22Q327.62-7.36 331.14-7.36L331.14-7.36L331.14-7.36Q334.34-7.36 335.84-8.70L335.84-8.70L335.84-8.70Q337.34-10.05 337.34-12.29L337.34-12.29L349.70-12.29L349.70-12.29Q349.70-6.14 345.02-2.69L345.02-2.69L345.02-2.69Q340.35 0.77 331.39 0.77L331.39 0.77L331.39 0.77Q321.98 0.77 316.80-3.62L316.80-3.62L316.80-3.62Q311.62-8 311.62-16.90L311.62-16.90L311.62-16.90Q311.62-25.60 316.67-30.08L316.67-30.08L316.67-30.08Q321.73-34.56 330.62-34.56L330.62-34.56ZM331.14-26.43L331.14-26.43Q325.12-26.43 324.42-20.74L324.42-20.74L336.83-20.74L336.83-20.74Q336.83-23.36 335.33-24.90L335.33-24.90L335.33-24.90Q333.82-26.43 331.14-26.43L331.14-26.43ZM403.01-17.60L415.68 0L400.83 0L394.43-10.62L394.18-10.62L387.71 0L373.57 0L386.56-17.92L374.85-33.79L389.82-33.79L395.20-24.83L395.46-24.83L400.83-33.79L414.91-33.79L403.01-17.60ZM490.69 0L475.14 0L469.44-26.82L469.18-26.82L463.49 0L447.94 0L437.63-44.03L452.35-44.03L457.41-19.07L457.66-19.07L462.66-44.03L476.61-44.03L481.92-19.07L482.18-19.07L486.91-44.03L500.99-44.03L490.69 0ZM520.83 0L506.69 0L506.69-44.03L520.83-44.03L520.83 0ZM549.44-44.80L549.44-44.80Q557.89-44.80 563.33-41.38L563.33-41.38L563.33-41.38Q568.77-37.95 568.90-31.23L568.90-31.23L568.90-30.46L555.65-30.46L555.65-30.72L555.65-30.72Q555.65-32.64 554.24-33.92L554.24-33.92L554.24-33.92Q552.83-35.20 549.95-35.20L549.95-35.20L549.95-35.20Q547.14-35.20 545.63-34.37L545.63-34.37L545.63-34.37Q544.13-33.54 544.13-32.32L544.13-32.32L544.13-32.32Q544.13-30.59 546.18-29.76L546.18-29.76L546.18-29.76Q548.22-28.93 552.77-28.03L552.77-28.03L552.77-28.03Q558.08-26.94 561.50-25.76L561.50-25.76L561.50-25.76Q564.93-24.58 567.49-21.89L567.49-21.89L567.49-21.89Q570.05-19.20 570.11-14.59L570.11-14.59L570.11-14.59Q570.11-6.78 564.83-3.01L564.83-3.01L564.83-3.01Q559.55 0.77 550.72 0.77L550.72 0.77L550.72 0.77Q540.42 0.77 534.69-2.69L534.69-2.69L534.69-2.69Q528.96-6.14 528.96-14.91L528.96-14.91L542.34-14.91L542.34-14.91Q542.34-11.58 544.06-10.46L544.06-10.46L544.06-10.46Q545.79-9.34 549.44-9.34L549.44-9.34L549.44-9.34Q552.13-9.34 553.89-9.92L553.89-9.92L553.89-9.92Q555.65-10.50 555.65-12.29L555.65-12.29L555.65-12.29Q555.65-13.89 553.70-14.69L553.70-14.69L553.70-14.69Q551.74-15.49 547.33-16.38L547.33-16.38L547.33-16.38Q541.95-17.54 538.43-18.78L538.43-18.78L538.43-18.78Q534.91-20.03 532.29-22.91L532.29-22.91L532.29-22.91Q529.66-25.79 529.66-30.72L529.66-30.72L529.66-30.72Q529.66-37.95 535.26-41.38L535.26-41.38L535.26-41.38Q540.86-44.80 549.44-44.80L549.44-44.80ZM595.65-44.80L595.65-44.80Q604.10-44.80 609.54-41.38L609.54-41.38L609.54-41.38Q614.98-37.95 615.10-31.23L615.10-31.23L615.10-30.46L601.86-30.46L601.86-30.72L601.86-30.72Q601.86-32.64 600.45-33.92L600.45-33.92L600.45-33.92Q599.04-35.20 596.16-35.20L596.16-35.20L596.16-35.20Q593.34-35.20 591.84-34.37L591.84-34.37L591.84-34.37Q590.34-33.54 590.34-32.32L590.34-32.32L590.34-32.32Q590.34-30.59 592.38-29.76L592.38-29.76L592.38-29.76Q594.43-28.93 598.98-28.03L598.98-28.03L598.98-28.03Q604.29-26.94 607.71-25.76L607.71-25.76L607.71-25.76Q611.14-24.58 613.70-21.89L613.70-21.89L613.70-21.89Q616.26-19.20 616.32-14.59L616.32-14.59L616.32-14.59Q616.32-6.78 611.04-3.01L611.04-3.01L611.04-3.01Q605.76 0.77 596.93 0.77L596.93 0.77L596.93 0.77Q586.62 0.77 580.90-2.69L580.90-2.69L580.90-2.69Q575.17-6.14 575.17-14.91L575.17-14.91L588.54-14.91L588.54-14.91Q588.54-11.58 590.27-10.46L590.27-10.46L590.27-10.46Q592.00-9.34 595.65-9.34L595.65-9.34L595.65-9.34Q598.34-9.34 600.10-9.92L600.10-9.92L600.10-9.92Q601.86-10.50 601.86-12.29L601.86-12.29L601.86-12.29Q601.86-13.89 599.90-14.69L599.90-14.69L599.90-14.69Q597.95-15.49 593.54-16.38L593.54-16.38L593.54-16.38Q588.16-17.54 584.64-18.78L584.64-18.78L584.64-18.78Q581.12-20.03 578.50-22.91L578.50-22.91L578.50-22.91Q575.87-25.79 575.87-30.72L575.87-30.72L575.87-30.72Q575.87-37.95 581.47-41.38L581.47-41.38L581.47-41.38Q587.07-44.80 595.65-44.80L595.65-44.80Z" fill="#ccc"></path></g></g><style>text {
  font-size: 64px;
  font-family: Arial Black;
  dominant-baseline: central;
  text-anchor: middle;
}</style></svg>