<?xml version="1.0" encoding="utf-8"?><!-- Uploaded to: SVG Repo, www.svgrepo.com, Generator: SVG Repo Mixer Tools -->
<svg width="800px" height="800px" viewBox="0 0 24 24" fill="none" xmlns="http://www.w3.org/2000/svg">
<path fill-rule="evenodd" clip-rule="evenodd" d="M21.9438 3.33038C22.0707 2.96779 21.9787 2.56456 21.7071 2.29292C21.4354 2.02128 21.0322 1.92926 20.6696 2.05617L1.85999 8.63954C0.577721 9.08834 0.504876 10.8743 1.74631 11.426L9.24237 14.7576L12.574 22.2537C13.1257 23.4951 14.9117 23.4223 15.3605 22.14L21.9438 3.33038ZM9.77851 12.8073L3.71105 10.1106L19.37 4.63L13.8894 20.289L11.1927 14.2215L14.7071 10.7071C15.0976 10.3166 15.0976 9.68342 14.7071 9.29289C14.3166 8.90237 13.6834 8.90237 13.2929 9.29289L9.77851 12.8073Z" fill="#000000"/>
</svg>